<?xml version="1.0" encoding="UTF-8"?>
<svg xmlns="http://www.w3.org/2000/svg" viewBox="0 0 772.97 1038.55" role="img" aria-label="Unity Power Solutions">
  <path fill="#ff5000" d="M117.7.75l2.02,372.07c.17,39.51,32.25,71.45,71.76,71.45h0c39.63,0,71.76-32.13,71.76-71.76V.75h111.84v372.03c0,103.58-83.96,187.54-187.54,187.54h0C83.96,560.32,0,476.36,0,372.78V.75h117.7Z"/>
  <path fill="#ff5000" d="M577.14.28c103.58,0,187.51,83.92,187.51,187.51,0,51.82-20.99,98.67-54.92,132.64-33.92,33.92-80.83,54.92-132.59,54.92h-155.19v-117.69l155.19-2.03c39.53-.16,71.48-32.27,71.48-71.8,0-19.77-8.01-37.72-20.99-50.7-12.98-12.98-30.93-21.05-50.75-21.05h-154.92V.28h155.19Z"/>
  <path fill="#ff5000" d="M7.99,589.3l116.5,1.97c0,39.63,29.27,72.28,68.9,72.28l392.04-.07c103.58,0,187.54,83.96,187.54,187.54h0c0,103.58-83.96,187.54-187.54,187.54H2.1v-117.7l18.56-.09,564.8-1.94c39.51-.17,71.45-32.25,71.45-71.76h0c0-39.63-32.13-71.76-71.76-71.76l-391.9.07c-103.58,0-185.27-82.51-185.27-186.09Z"/>
</svg>
